PathFileType	4	(X/Y/Z)	C:\Github\FootballMatch-and-Movement-Analysis\output\test4 Exam_2026-03-06_143128_tvc1_Sports2D\test4 Exam_2026-03-06_143128_tvc1_Sports2D_px_person00.trc
DataRate	CameraRate	NumFrames	NumMarkers	Units	OrigDataRate	OrigDataStartFrame	OrigNumFrames
30.0	30.0	6	22	m	30.0	120	320
Frame#	Time	Hip			RHip			RKnee			RAnkle			RBigToe			RSmallToe			RHeel			LHip			LKnee			LAnkle			LBigToe			LSmallToe			LHeel			Neck			Head			Nose			RShoulder			RElbow			RWrist			LShoulder			LElbow			LWrist			
		X1	Y1	Z1	X2	Y2	Z2	X3	Y3	Z3	X4	Y4	Z4	X5	Y5	Z5	X6	Y6	Z6	X7	Y7	Z7	X8	Y8	Z8	X9	Y9	Z9	X10	Y10	Z10	X11	Y11	Z11	X12	Y12	Z12	X13	Y13	Z13	X14	Y14	Z14	X15	Y15	Z15	X16	Y16	Z16	X17	Y17	Z17	X18	Y18	Z18	X19	Y19	Z19	X20	Y20	Z20	X21	Y21	Z21	X22	Y22	Z22
120	4.012539184952978	707.1479617736111	692.1478819963502	0.0	697.2054036821137	702.7587349673342	0.0	692.893956167598	849.4759381686309	0.0	731.4280507015364	990.327641377665	0.0	680.629359679463	1031.647328651076	0.0	687.1156461217332	1020.0042023781215	0.0	741.1566652082356	1018.1767637986918	0.0	717.8504853954645	701.0878082461888	0.0	707.0690191993808	858.4235051078658	0.0	736.5426884623571	1000.5783309150389	0.0	677.7300912310883	1037.586008020957	0.0	698.5873952662528	1041.997604788501	0.0	751.4324420828283	1022.4020762483586	0.0	676.8976993342492	432.4282515442256	0.0	611.6791660881562	342.3053560233094	0.0	608.0471449094531	419.5524213450347	0.0	672.8197410814915	471.08542938606786	0.0	687.7148281844505	587.8906162699002	0.0	670.9928758853473	674.2757745288122	0.0	721.457059780819	450.127513630254	0.0	737.1536345681151	564.5892749650399	0.0	732.8885424687792	688.1205911236164	0.0
121	4.045977011494252	706.9710997761038	692.852580104299	0.0	696.742555151038	702.6469175589461	0.0	693.166669042773	850.1137147660158	0.0	731.3496141068572	990.5810344576244	0.0	680.4095259418434	1032.0881937211966	0.0	687.3989505240174	1020.42107898185	0.0	740.9641442851239	1018.8234443060271	0.0	717.6396330205129	701.5658010743294	0.0	706.4235996990764	858.8197514758047	0.0	737.1297162148435	1001.5996515117747	0.0	677.3765128152928	1037.5735634875482	0.0	698.0911833953264	1042.043933770389	0.0	752.0394083158683	1023.3354090547049	0.0	676.438511178794	433.14804591751306	0.0	611.4504530831196	343.2168816147114	0.0	608.1285037456037	420.0553926447583	0.0	672.6897117634649	471.4613196753875	0.0	687.0034184262831	588.9792994303178	0.0	671.2047518355345	674.722566974927	0.0	721.7242966521522	450.5539248337715	0.0	736.8495291181978	565.8449639749572	0.0	732.1705857861921	688.7526792298934	0.0
122	4.079414838035527	706.9514548029443	692.8387523801496	0.0	697.1636394933736	702.3032254558797	0.0	694.6188702826054	850.4618274949389	0.0	731.1569028455737	990.7405837484819	0.0	680.582260715683	1032.0053435964116	0.0	687.6872588783663	1020.9883701426871	0.0	740.836095975462	1018.8037980505999	0.0	717.6365715333768	701.7254632033365	0.0	705.5654309686248	858.4188716979904	0.0	738.034041463728	1001.9888717694546	0.0	677.7266139224587	1037.6641353109496	0.0	698.6463887072038	1042.0612953818795	0.0	752.9367772409112	1023.494185062581	0.0	675.7499719064649	433.2093818588293	0.0	610.9896395683938	343.6414624254771	0.0	607.8823466958748	420.221540010201	0.0	672.7888789264659	471.1835373241646	0.0	687.0338162979131	589.6248016577451	0.0	671.8297720431849	673.99145281533	0.0	721.9409665628561	450.33769249333574	0.0	736.7413743209881	566.2484767709677	0.0	732.2907954933733	689.4852448925632	0.0
123	4.112852664576802	707.181989649081	692.4379329106198	0.0	698.2783480570087	702.1942409450636	0.0	697.1451092001629	850.317000310692	0.0	731.1097922834401	990.8498989124739	0.0	681.4762594313022	1031.7772873064189	0.0	687.8163871298136	1020.9822848157346	0.0	740.3459569047587	1018.7405393212647	0.0	717.939923649544	701.4876414975633	0.0	705.4904450581116	858.1985781541246	0.0	738.2748830547812	1001.9084692473061	0.0	678.3179745310003	1037.630686877038	0.0	699.2374205377	1041.9205859022657	0.0	753.1164263214595	1023.4569639747083	0.0	675.5245530307669	433.128686142499	0.0	610.6982891261086	343.0252440916887	0.0	607.5399883942694	419.99431034353915	0.0	672.7636254111039	470.812278966338	0.0	688.1677160450405	590.118903603349	0.0	672.7705771826407	673.8884608732286	0.0	722.0003078783689	450.1327297179214	0.0	736.9149146617748	566.7075164690689	0.0	732.7488881822605	690.230908592602	0.0
124	4.1462904911180765	707.6006283602593	692.0279094961579	0.0	698.8539466129783	702.1957532833055	0.0	699.0129393732104	849.7706892618742	0.0	730.9763270562856	990.7696269318225	0.0	682.6375654675419	1031.59233423623	0.0	688.0135029306423	1020.1902112261516	0.0	739.6637475075692	1018.672243846561	0.0	718.4152988382014	700.7637521035417	0.0	706.3684262439998	858.1090887732928	0.0	738.1654856496042	1001.7709595732654	0.0	678.4149097930247	1037.3160566668446	0.0	699.4973506786323	1041.5898563057406	0.0	752.9698017728749	1023.6598386775379	0.0	675.805417525773	433.0096073248954	0.0	610.8203048855769	342.1315853177885	0.0	607.4782527940841	419.38083239575525	0.0	672.5649102350362	470.1200545038421	0.0	689.356561848336	590.1287255697029	0.0	674.2526398051048	674.7218710061211	0.0	722.0745375710081	450.00093094191413	0.0	737.5478814269081	568.0773781203334	0.0	733.3043163907206	690.5750783481906	0.0
125	4.179728317659352	708.0554200279139	691.7887218849442	0.0	698.4119517489542	701.6231104646085	0.0	699.42344029542	849.3708976255183	0.0	730.9246523046118	990.5692753127028	0.0	683.5314397007437	1031.6448131823142	0.0	688.4296197138465	1019.7586422784667	0.0	739.3901218303711	1018.8082673839876	0.0	718.8012867843975	699.7494833404673	0.0	707.7402208049439	858.0062833514224	0.0	738.6579401256947	1001.5767771758428	0.0	678.1694670446232	1036.9885362796513	0.0	700.0861641647577	1041.318178507508	0.0	753.5209113527769	1023.9514857496476	0.0	676.1246420141138	432.62769834409437	0.0	610.8658006338864	341.81401879234477	0.0	607.626502768024	418.63753846237006	0.0	672.7196433966852	468.9991994588097	0.0	689.6146250432253	589.2958048380004	0.0	676.3462930314797	675.3847880134631	0.0	722.3584536394392	449.6547323030635	0.0	738.6222723654591	569.5162861454592	0.0	733.6216324068797	690.389642676693	0.0
